<svg width="70" height="70" viewBox="0 0 70 70" fill="none" xmlns="http://www.w3.org/2000/svg">
<g filter="url(#filter0_d)">
<ellipse cx="35.0995" cy="22.1837" rx="16.8994" ry="16.7999" fill="#F53838"/>
</g>
<path d="M40.3125 22C40.3125 23.409 39.7528 24.7602 38.7565 25.7565C37.7602 26.7528 36.409 27.3125 35 27.3125C33.591 27.3125 32.2398 26.7528 31.2435 25.7565C30.2472 24.7602 29.6875 23.409 29.6875 22C29.6875 21.6972 29.7194 21.4015 29.7743 21.1146H27.9167V28.1926C27.9167 28.6849 28.3151 29.0833 28.8074 29.0833H41.1944C41.4303 29.0829 41.6564 28.9888 41.8231 28.8218C41.9897 28.6548 42.0833 28.4285 42.0833 28.1926V21.1146H40.2257C40.2806 21.4015 40.3125 21.6972 40.3125 22ZM35 25.5417C35.4652 25.5415 35.9258 25.4498 36.3556 25.2717C36.7854 25.0935 37.1758 24.8325 37.5047 24.5035C37.8336 24.1744 38.0944 23.7838 38.2723 23.354C38.4503 22.9241 38.5418 22.4634 38.5417 21.9982C38.5415 21.533 38.4498 21.0724 38.2717 20.6426C38.0935 20.2129 37.8325 19.8224 37.5035 19.4935C37.1744 19.1647 36.7838 18.9038 36.354 18.7259C35.9241 18.548 35.4634 18.4564 34.9982 18.4566C34.0587 18.4568 33.1577 18.8303 32.4935 19.4948C31.8293 20.1593 31.4563 21.0605 31.4566 22C31.4568 22.9395 31.8303 23.8405 32.4948 24.5047C33.1593 25.1689 34.0605 25.5419 35 25.5417ZM39.25 18.2812H41.3732C41.5143 18.2812 41.6496 18.2253 41.7495 18.1258C41.8494 18.0262 41.9058 17.8911 41.9062 17.75V15.6268C41.9062 15.4854 41.8501 15.3498 41.7501 15.2499C41.6502 15.1499 41.5146 15.0937 41.3732 15.0937H39.25C39.1086 15.0937 38.9731 15.1499 38.8731 15.2499C38.7731 15.3498 38.717 15.4854 38.717 15.6268V17.75C38.7188 18.0422 38.9578 18.2812 39.25 18.2812ZM35 5C30.4913 5 26.1673 6.79107 22.9792 9.97918C19.7911 13.1673 18 17.4913 18 22C18 26.5087 19.7911 30.8327 22.9792 34.0208C26.1673 37.2089 30.4913 39 35 39C37.2325 39 39.4431 38.5603 41.5056 37.706C43.5682 36.8516 45.4422 35.5994 47.0208 34.0208C48.5994 32.4422 49.8516 30.5682 50.706 28.5056C51.5603 26.4431 52 24.2325 52 22C52 19.7675 51.5603 17.5569 50.706 15.4944C49.8516 13.4318 48.5994 11.5578 47.0208 9.97918C45.4422 8.40059 43.5682 7.14838 41.5056 6.29405C39.4431 5.43972 37.2325 5 35 5ZM43.8542 28.8868C43.8542 29.9688 42.9688 30.8542 41.8868 30.8542H28.1132C27.0312 30.8542 26.1458 29.9688 26.1458 28.8868V15.1132C26.1458 14.0312 27.0312 13.1458 28.1132 13.1458H41.8868C42.9688 13.1458 43.8542 14.0312 43.8542 15.1132V28.8868Z" fill="white"/>
<defs>
<filter id="filter0_d" x="0.200073" y="0.383789" width="69.7988" height="69.5999" filterUnits="userSpaceOnUse" color-interpolation-filters="sRGB">
<feFlood flood-opacity="0" result="BackgroundImageFix"/>
<feColorMatrix in="SourceAlpha" type="matrix" values="0 0 0 0 0 0 0 0 0 0 0 0 0 0 0 0 0 0 127 0"/>
<feOffset dy="13"/>
<feGaussianBlur stdDeviation="9"/>
<feColorMatrix type="matrix" values="0 0 0 0 0.0658854 0 0 0 0 0.0730469 0 0 0 0 0.1375 0 0 0 0.08 0"/>
<feBlend mode="normal" in2="BackgroundImageFix" result="effect1_dropShadow"/>
<feBlend mode="normal" in="SourceGraphic" in2="effect1_dropShadow" result="shape"/>
</filter>
</defs>
</svg>
