<svg width="35" height="37" viewBox="0 0 35 37" fill="none" xmlns="http://www.w3.org/2000/svg">
<path d="M31.1473 14.0315L31.1255 14.0098C31.1238 14.0085 31.1224 14.0069 31.1215 14.005L17.5006 0.383789L3.87983 14.0047C3.87826 14.0063 3.8758 14.0094 3.8758 14.0094L3.85333 14.0312C1.77053 16.1257 0.447586 18.8563 0.0948177 21.789C-0.25795 24.7217 0.379698 27.6882 1.90639 30.2169C3.43309 32.7457 5.76122 34.6915 8.52069 35.745C11.2802 36.7985 14.3126 36.8995 17.136 36.0315C17.3735 35.9589 17.6275 35.9589 17.8651 36.0315C20.6882 36.8991 23.7205 36.7982 26.4798 35.7445C29.2391 34.6908 31.567 32.7451 33.0936 30.2166C34.6202 27.688 35.2579 24.7217 34.9053 21.7892C34.5526 18.8566 33.2299 16.126 31.1473 14.0315ZM8.7232 23.0136C8.65689 23.0799 8.6043 23.1587 8.56844 23.2452C8.53257 23.3318 8.5141 23.4246 8.51412 23.5184C8.53835 25.9224 9.21776 28.2742 10.4792 30.3209C10.5079 30.3673 10.5211 30.4216 10.517 30.476C10.513 30.5303 10.4918 30.582 10.4566 30.6237C10.4213 30.6654 10.3738 30.6948 10.3209 30.7078C10.2679 30.7208 10.2122 30.7168 10.1616 30.6962C9.21332 30.2973 8.35182 29.7174 7.62531 28.9891C6.13646 27.5 5.29946 25.4808 5.2981 23.375C5.29675 21.2693 6.13117 19.249 7.61812 17.7581L17.5006 7.87652L27.3826 17.7581C28.8698 19.2488 29.7045 21.2691 29.703 23.375C29.7018 25.4808 28.8647 27.5 27.3757 28.9891C26.6492 29.7174 25.7877 30.2973 24.8396 30.6962C24.7889 30.7168 24.7332 30.7208 24.6802 30.7078C24.6273 30.6948 24.5798 30.6652 24.5445 30.6237C24.5093 30.582 24.488 30.5303 24.484 30.4758C24.4799 30.4215 24.4931 30.3671 24.5218 30.3207C25.7835 28.2742 26.4633 25.9224 26.4879 23.5184C26.4879 23.4246 26.4692 23.3318 26.4332 23.2451C26.3971 23.1584 26.3444 23.0797 26.2779 23.0134L21.6037 18.0555C21.5571 18.0167 21.4985 17.9954 21.4378 17.9954C21.3773 17.9954 21.3186 18.0167 21.2721 18.0555C21.2255 18.0942 21.1942 18.1482 21.1833 18.2078C21.1724 18.2675 21.1828 18.3288 21.2127 18.3816C23.0281 21.6668 21.467 26.3855 18.8637 28.9891L18.85 29.0029C18.4907 29.3583 18.0056 29.5576 17.5002 29.5574C16.9948 29.5572 16.5098 29.3576 16.1508 29.002L16.1382 28.9891C13.5339 26.3855 11.9736 21.6673 13.7893 18.3823C13.8192 18.3295 13.8296 18.2682 13.8187 18.2085C13.8079 18.1489 13.7764 18.0949 13.7299 18.0562C13.6834 18.0174 13.6247 17.9961 13.5642 17.9961C13.5036 17.9961 13.4449 18.0174 13.3984 18.0562L8.7232 23.0136Z" fill="#F53838"/>
</svg>
