<svg width="26" height="26" viewBox="0 0 26 26" fill="none" xmlns="http://www.w3.org/2000/svg">
<path d="M22.9007 8.78733L16.7345 7.86902L13.978 2.14269C13.9027 1.98591 13.7788 1.85899 13.6258 1.78184C13.2421 1.58773 12.7758 1.74949 12.584 2.14269L9.82749 7.86902L3.66125 8.78733C3.49125 8.81221 3.33582 8.89434 3.21682 9.01877C3.07295 9.17029 2.99367 9.37415 2.99641 9.58553C2.99914 9.79692 3.08366 9.99855 3.23139 10.1461L7.69274 14.6032L6.63873 20.897C6.61401 21.0434 6.62982 21.194 6.68436 21.3316C6.73891 21.4693 6.83001 21.5886 6.94733 21.6759C7.06465 21.7632 7.20349 21.8151 7.34812 21.8256C7.49275 21.8362 7.63738 21.805 7.7656 21.7357L13.281 18.7642L18.7963 21.7357C18.9469 21.8178 19.1218 21.8452 19.2893 21.8153C19.7119 21.7406 19.9961 21.33 19.9232 20.897L18.8692 14.6032L23.3306 10.1461C23.452 10.0242 23.5321 9.8649 23.5564 9.6907C23.622 9.25519 23.3257 8.85203 22.9007 8.78733Z" fill="#FEA250"/>
</svg>
