<svg width="70" height="70" viewBox="0 0 70 70" fill="none" xmlns="http://www.w3.org/2000/svg">
<g filter="url(#filter0_d)">
<ellipse cx="35.2047" cy="22.1837" rx="16.6046" ry="16.7999" fill="#F53838"/>
</g>
<path d="M35 5C25.611 5 18 12.611 18 22C18 31.389 25.611 39 35 39C44.389 39 52 31.389 52 22C52 12.611 44.389 5 35 5ZM41.9151 18.9258C41.9222 19.071 41.924 19.2163 41.924 19.3579C41.924 23.785 38.5576 28.8868 32.3986 28.8868C30.5787 28.8898 28.7967 28.3671 27.2668 27.3816C27.5271 27.4134 27.7945 27.4258 28.0654 27.4258C29.6344 27.4258 31.0776 26.8928 32.2233 25.9932C31.5251 25.9795 30.8486 25.7483 30.288 25.3319C29.7274 24.9154 29.3108 24.3344 29.096 23.6699C29.5975 23.7652 30.114 23.7453 30.6066 23.6115C29.8487 23.4582 29.1672 23.0476 28.6776 22.4492C28.188 21.8508 27.9204 21.1015 27.9202 20.3283V20.2876C28.3718 20.5373 28.8889 20.6896 29.4378 20.7073C28.7274 20.2344 28.2244 19.5079 28.0318 18.6764C27.8393 17.8449 27.9717 16.9713 28.4019 16.2342C29.2429 17.2683 30.2918 18.1143 31.4806 18.7174C32.6694 19.3205 33.9715 19.6672 35.3028 19.7351C35.1336 19.0167 35.2064 18.2625 35.51 17.5897C35.8136 16.917 36.331 16.3634 36.9817 16.0151C37.6324 15.6667 38.3799 15.5431 39.1081 15.6634C39.8363 15.7837 40.5044 16.1412 41.0084 16.6804C41.7578 16.5322 42.4764 16.2573 43.1334 15.8676C42.8837 16.6435 42.3608 17.3023 41.6619 17.7217C42.3257 17.6417 42.9738 17.4633 43.585 17.1922C43.1361 17.8649 42.5706 18.452 41.9151 18.9258Z" fill="white"/>
<defs>
<filter id="filter0_d" x="0.600098" y="0.383789" width="69.2093" height="69.5999" filterUnits="userSpaceOnUse" color-interpolation-filters="sRGB">
<feFlood flood-opacity="0" result="BackgroundImageFix"/>
<feColorMatrix in="SourceAlpha" type="matrix" values="0 0 0 0 0 0 0 0 0 0 0 0 0 0 0 0 0 0 127 0"/>
<feOffset dy="13"/>
<feGaussianBlur stdDeviation="9"/>
<feColorMatrix type="matrix" values="0 0 0 0 0.0658854 0 0 0 0 0.0730469 0 0 0 0 0.1375 0 0 0 0.08 0"/>
<feBlend mode="normal" in2="BackgroundImageFix" result="effect1_dropShadow"/>
<feBlend mode="normal" in="SourceGraphic" in2="effect1_dropShadow" result="shape"/>
</filter>
</defs>
</svg>
